<?xml version="1.0" encoding="utf-8"?>
<!-- Generator: Adobe Illustrator 22.0.1, SVG Export Plug-In . SVG Version: 6.00 Build 0)  -->
<svg version="1.1" id="Layer_1" xmlns="http://www.w3.org/2000/svg" xmlns:xlink="http://www.w3.org/1999/xlink" x="0px" y="0px"
	 viewBox="0 0 942.3 942.3" style="enable-background:new 0 0 942.3 942.3;" xml:space="preserve">
<path d="M311,519.3c0,6.4,5.5,10.6,11.6,10.6c17.6,0,25.3-16.1,25.3-31.9v-8.2l-34.4,14.3C311.9,509,311.1,514.1,311,519.3z"/>
<path d="M471.1,0C210.9,0,0,210.9,0,471.1s210.9,471.1,471.1,471.1s471.1-210.9,471.1-471.1S731.3,0,471.1,0z M214,565.2
	c-57.5,0-80.6-49.9-80.6-100.4c0-47.8,27.4-100.4,81.2-100.4c15.8,0,39.2,4.3,52.3,14.6l-16.7,30.4c-9.7-4.9-24.9-7-35.6-7
	c-26.2,0-35.9,43.2-35.9,63.5c0,23.7,5.2,60.8,36.5,60.8c11.6,0,26.2-4.6,35.9-11l19.8,30.1C256.3,558.2,232.5,565.2,214,565.2z
	 M379.7,565.2c-15.8,0-24.6-10.3-26.5-24c-5.5,14.9-21.9,24-37.1,24c-29.8,0-46.5-14.9-46.5-45.3c0-10.7,5.5-22.8,10.6-32.2
	l66.6-26.8v-6.4c0-8.2-9.1-12.2-16.1-12.2c-14,0-25.7,5.5-36.6,14l-15.4-24.9c14.3-13.7,36.7-24.4,56.8-24.4
	c28.9,0,53.4,13.4,53.4,45v79.4c0,2.7-0.2,7.9,3.5,7.9c1.5-0.1,2.9-0.5,4.2-1.2l6.7,20.7C395.9,562.5,387.9,565.2,379.7,565.2z
	 M468.8,562.8c-5.5,1.8-10.7,2.4-18.6,2.4c-27.4,0-36.3-21-36.3-40.8v-77.8l-14-3.3v-32.2h15v-15.4l42-10.8v26.2h24v36h-23v70.1
	c0,1.8,0.5,9.4,4.7,10.6c6.7,2.4,14.8-2.1,14.8-2.1l9.4,30.1C486.8,555.8,473.7,561.3,468.8,562.8z M550.9,565.2
	c-42.6,0-66.6-38.9-66.6-77.9c0-39.8,23.4-80.3,67.5-80.3c15.8,0,34.7,7.6,46.2,18.5l-19.8,25.8c-6.1-4.9-18.2-8.2-26.2-8.2
	c-17.6,0-23.7,28-23.7,41.7c0,14,6.4,44.4,24.6,44.4c10.9,0,24-6.4,32.2-13.1l15.8,28.3C588.4,555.8,568,565.2,550.9,565.2z
	 M733.9,561.1h-44V453c0-6.1-1.9-9.4-7.7-9.4c-13.7,0-20.3,7.3-29.3,12.2v105.3h-44V360.1l44-10.8v73.3c10-6.7,22.6-15.5,34.7-15.5
	c39.3,0,46.3,23.7,46.3,45.9V561.1z M777.5,565.2c-13.4,0-26.2-10-26.2-24c0-14.6,13.4-25.5,27.7-25.5c13.4,0,26.1,9.7,26.1,24
	C805.2,554.3,791.5,565.2,777.5,565.2z"/>
</svg>
